HIERARCHY
ROOT Root
{
  OFFSET 0.0 0.0 0.0
  CHANNELS 6 Xposition Yposition Zposition Zrotation Yrotation Xrotation
  JOINT Hips
  {
    OFFSET 0.0 100.0 0.0
    CHANNELS 6 Xposition Yposition Zposition Zrotation Yrotation Xrotation
    JOINT Spine1
    {
      OFFSET -0.013727 5.003763 -0.053727
      CHANNELS 3 Zrotation Yrotation Xrotation
      JOINT Spine2
      {
        OFFSET -0.0 7.125301 -0.029825
        CHANNELS 3 Zrotation Yrotation Xrotation
        JOINT Chest
        {
          OFFSET -1e-06 7.550063 -0.815971
          CHANNELS 3 Zrotation Yrotation Xrotation
          JOINT Neck1
          {
            OFFSET -0.181677 26.311295 -0.553348
            CHANNELS 3 Zrotation Yrotation Xrotation
            JOINT Neck2
            {
              OFFSET -3e-06 7.709397 2.302585
              CHANNELS 3 Zrotation Yrotation Xrotation
              JOINT Head
              {
                OFFSET -5e-06 6.128916 1.953709
                CHANNELS 3 Zrotation Yrotation Xrotation
                JOINT HeadEnd
                {
                  OFFSET 0.003598 16.065403 -1.835379
                  CHANNELS 3 Zrotation Yrotation Xrotation
                }
                JOINT Jaw
                {
                  OFFSET 0.002637 0.475592 3.094941
                  CHANNELS 3 Zrotation Yrotation Xrotation
                }
                JOINT LeftEye
                {
                  OFFSET 3.206381 5.380205 7.586883
                  CHANNELS 3 Zrotation Yrotation Xrotation
                }
                JOINT RightEye
                {
                  OFFSET -3.22244 5.361869 7.558234
                  CHANNELS 3 Zrotation Yrotation Xrotation
                }
              }
            }
          }
          JOINT LeftShoulder
          {
            OFFSET 1.621652 23.237164 5.113413
            CHANNELS 3 Zrotation Yrotation Xrotation
            JOINT LeftArm
            {
              OFFSET 14.919846 2e-06 -5.502326
              CHANNELS 3 Zrotation Yrotation Xrotation
              JOINT LeftForeArm
              {
                OFFSET 28.739307 0.0 -0.002588
                CHANNELS 3 Zrotation Yrotation Xrotation
                JOINT LeftHand
                {
                  OFFSET 27.093981 -1e-06 0.002609
                  CHANNELS 3 Zrotation Yrotation Xrotation
                  JOINT LeftHandThumb1
                  {
                    OFFSET 2.276482 -1.392045 3.191413
                    CHANNELS 3 Zrotation Yrotation Xrotation
                    JOINT LeftHandThumb2
                    {
                      OFFSET 4.012836 -1.828127 1.641654
                      CHANNELS 3 Zrotation Yrotation Xrotation
                      JOINT LeftHandThumb3
                      {
                        OFFSET 2.798515 0.0 -3e-06
                        CHANNELS 3 Zrotation Yrotation Xrotation
                        JOINT LeftHandThumbEnd
                        {
                          OFFSET 3.180793 -4e-06 4e-06
                          CHANNELS 3 Zrotation Yrotation Xrotation
                        }
                      }
                    }
                  }
                  JOINT LeftHandIndex1
                  {
                    OFFSET 3.247555 -0.531998 2.296169
                    CHANNELS 3 Zrotation Yrotation Xrotation
                    JOINT LeftHandIndex2
                    {
                      OFFSET 6.364578 0.01206 0.1786
                      CHANNELS 3 Zrotation Yrotation Xrotation
                      JOINT LeftHandIndex3
                      {
                        OFFSET 3.662364 0.0 0.0
                        CHANNELS 3 Zrotation Yrotation Xrotation
                        JOINT LeftHandIndex4
                        {
                          OFFSET 2.329242 4e-06 4e-06
                          CHANNELS 3 Zrotation Yrotation Xrotation
                          JOINT LeftHandIndexEnd
                          {
                            OFFSET 2.759615 -0.180537 -0.113024
                            CHANNELS 3 Zrotation Yrotation Xrotation
                          }
                        }
                      }
                    }
                  }
                  JOINT LeftHandMiddle1
                  {
                    OFFSET 3.163495 0.240981 1.000332
                    CHANNELS 3 Zrotation Yrotation Xrotation
                    JOINT LeftHandMiddle2
                    {
                      OFFSET 6.19078 -0.259278 -1.002548
                      CHANNELS 3 Zrotation Yrotation Xrotation
                      JOINT LeftHandMiddle3
                      {
                        OFFSET 4.35652 -4e-06 -1e-06
                        CHANNELS 3 Zrotation Yrotation Xrotation
                        JOINT LeftHandMiddle4
                        {
                          OFFSET 2.996877 -8e-06 0.0
                          CHANNELS 3 Zrotation Yrotation Xrotation
                          JOINT LeftHandMiddleEnd
                          {
                            OFFSET 2.304287 -0.294569 -0.031741
                            CHANNELS 3 Zrotation Yrotation Xrotation
                          }
                        }
                      }
                    }
                  }
                  JOINT LeftHandRing1
                  {
                    OFFSET 2.882643 -0.053652 -0.322543
                    CHANNELS 3 Zrotation Yrotation Xrotation
                    JOINT LeftHandRing2
                    {
                      OFFSET 5.854541 -0.486202 -1.373841
                      CHANNELS 3 Zrotation Yrotation Xrotation
                      JOINT LeftHandRing3
                      {
                        OFFSET 4.350578 0.0 3e-06
                        CHANNELS 3 Zrotation Yrotation Xrotation
                        JOINT LeftHandRing4
                        {
                          OFFSET 2.651321 7e-06 2e-06
                          CHANNELS 3 Zrotation Yrotation Xrotation
                          JOINT LeftHandRingEnd
                          {
                            OFFSET 1.936105 0.077687 -7.1e-05
                            CHANNELS 3 Zrotation Yrotation Xrotation
                          }
                        }
                      }
                    }
                  }
                  JOINT LeftHandPinky1
                  {
                    OFFSET 2.8655 -0.310005 -1.600378
                    CHANNELS 3 Zrotation Yrotation Xrotation
                    JOINT LeftHandPinky2
                    {
                      OFFSET 5.087849 -1.331141 -1.77123
                      CHANNELS 3 Zrotation Yrotation Xrotation
                      JOINT LeftHandPinky3
                      {
                        OFFSET 3.070974 4e-06 0.0
                        CHANNELS 3 Zrotation Yrotation Xrotation
                        JOINT LeftHandPinky4
                        {
                          OFFSET 1.549672 0.0 1e-06
                          CHANNELS 3 Zrotation Yrotation Xrotation
                          JOINT LeftHandPinkyEnd
                          {
                            OFFSET 1.944893 -0.157802 0.057219
                            CHANNELS 3 Zrotation Yrotation Xrotation
                          }
                        }
                      }
                    }
                  }
                }
              }
            }
          }
          JOINT RightShoulder
          {
            OFFSET -1.380118 23.180309 5.214158
            CHANNELS 3 Zrotation Yrotation Xrotation
            JOINT RightArm
            {
              OFFSET -15.037196 1.2e-05 -5.545604
              CHANNELS 3 Zrotation Yrotation Xrotation
              JOINT RightForeArm
              {
                OFFSET -28.736639 2e-06 -0.002597
                CHANNELS 3 Zrotation Yrotation Xrotation
                JOINT RightHand
                {
                  OFFSET -27.133619 -0.0 0.002613
                  CHANNELS 3 Zrotation Yrotation Xrotation
                  JOINT RightHandThumb1
                  {
                    OFFSET -2.274032 -1.383988 3.163127
                    CHANNELS 3 Zrotation Yrotation Xrotation
                    JOINT RightHandThumb2
                    {
                      OFFSET -4.011429 -1.827466 1.640914
                      CHANNELS 3 Zrotation Yrotation Xrotation
                      JOINT RightHandThumb3
                      {
                        OFFSET -2.794935 -4e-06 -3e-06
                        CHANNELS 3 Zrotation Yrotation Xrotation
                        JOINT RightHandThumbEnd
                        {
                          OFFSET -3.183852 4e-06 1e-06
                          CHANNELS 3 Zrotation Yrotation Xrotation
                        }
                      }
                    }
                  }
                  JOINT RightHandIndex1
                  {
                    OFFSET -3.253266 -0.520057 2.282866
                    CHANNELS 3 Zrotation Yrotation Xrotation
                    JOINT RightHandIndex2
                    {
                      OFFSET -6.341917 0.012471 0.178266
                      CHANNELS 3 Zrotation Yrotation Xrotation
                      JOINT RightHandIndex3
                      {
                        OFFSET -3.654871 -8e-06 -0.0
                        CHANNELS 3 Zrotation Yrotation Xrotation
                        JOINT RightHandIndex4
                        {
                          OFFSET -2.327586 0.0 1e-06
                          CHANNELS 3 Zrotation Yrotation Xrotation
                          JOINT RightHandIndexEnd
                          {
                            OFFSET -2.76179 -0.180656 -0.113078
                            CHANNELS 3 Zrotation Yrotation Xrotation
                          }
                        }
                      }
                    }
                  }
                  JOINT RightHandMiddle1
                  {
                    OFFSET -3.168106 0.246593 1.00103
                    CHANNELS 3 Zrotation Yrotation Xrotation
                    JOINT RightHandMiddle2
                    {
                      OFFSET -6.180828 -0.258836 -1.000895
                      CHANNELS 3 Zrotation Yrotation Xrotation
                      JOINT RightHandMiddle3
                      {
                        OFFSET -4.348901 0.0 -0.0
                        CHANNELS 3 Zrotation Yrotation Xrotation
                        JOINT RightHandMiddle4
                        {
                          OFFSET -3.00024 -4e-06 -2e-06
                          CHANNELS 3 Zrotation Yrotation Xrotation
                          JOINT RightHandMiddleEnd
                          {
                            OFFSET -2.30252 -0.29437 -0.031706
                            CHANNELS 3 Zrotation Yrotation Xrotation
                          }
                        }
                      }
                    }
                  }
                  JOINT RightHandRing1
                  {
                    OFFSET -2.88569 -0.067952 -0.308858
                    CHANNELS 3 Zrotation Yrotation Xrotation
                    JOINT RightHandRing2
                    {
                      OFFSET -5.854198 -0.48613 -1.373731
                      CHANNELS 3 Zrotation Yrotation Xrotation
                      JOINT RightHandRing3
                      {
                        OFFSET -4.33881 -4e-06 -0.0
                        CHANNELS 3 Zrotation Yrotation Xrotation
                        JOINT RightHandRing4
                        {
                          OFFSET -2.654903 -4e-06 4e-06
                          CHANNELS 3 Zrotation Yrotation Xrotation
                          JOINT RightHandRingEnd
                          {
                            OFFSET -1.933568 0.077527 -5.2e-05
                            CHANNELS 3 Zrotation Yrotation Xrotation
                          }
                        }
                      }
                    }
                  }
                  JOINT RightHandPinky1
                  {
                    OFFSET -2.866425 -0.342796 -1.584145
                    CHANNELS 3 Zrotation Yrotation Xrotation
                    JOINT RightHandPinky2
                    {
                      OFFSET -5.091371 -1.332055 -1.772385
                      CHANNELS 3 Zrotation Yrotation Xrotation
                      JOINT RightHandPinky3
                      {
                        OFFSET -3.062664 -4e-06 1e-06
                        CHANNELS 3 Zrotation Yrotation Xrotation
                        JOINT RightHandPinky4
                        {
                          OFFSET -1.546529 4e-06 -2e-06
                          CHANNELS 3 Zrotation Yrotation Xrotation
                          JOINT RightHandPinkyEnd
                          {
                            OFFSET -1.945119 -0.157718 0.057211
                            CHANNELS 3 Zrotation Yrotation Xrotation
                          }
                        }
                      }
                    }
                  }
                }
              }
            }
          }
        }
      }
    }
    JOINT LeftLeg
    {
      OFFSET 10.043214 -8.434526 2.595655
      CHANNELS 3 Zrotation Yrotation Xrotation
      JOINT LeftShin
      {
        OFFSET -1e-06 -43.221752 -0.802913
        CHANNELS 3 Zrotation Yrotation Xrotation
        JOINT LeftFoot
        {
          OFFSET 1e-06 -42.155094 -3.481523
          CHANNELS 3 Zrotation Yrotation Xrotation
          JOINT LeftToeBase
          {
            OFFSET 0.0 -5.059472 13.231529
            CHANNELS 3 Zrotation Yrotation Xrotation
            JOINT LeftToeEnd
            {
              OFFSET -0.009607 -1.647619 6.513017
              CHANNELS 3 Zrotation Yrotation Xrotation
            }
          }
        }
      }
    }
    JOINT RightLeg
    {
      OFFSET -10.047278 -8.29526 2.620317
      CHANNELS 3 Zrotation Yrotation Xrotation
      JOINT RightShin
      {
        OFFSET 1e-06 -43.362206 -0.805556
        CHANNELS 3 Zrotation Yrotation Xrotation
        JOINT RightFoot
        {
          OFFSET 2e-06 -42.117393 -3.478398
          CHANNELS 3 Zrotation Yrotation Xrotation
          JOINT RightToeBase
          {
            OFFSET -0.0 -5.079609 13.284196
            CHANNELS 3 Zrotation Yrotation Xrotation
            JOINT RightToeEnd
            {
              OFFSET 0.009532 -1.634378 6.460591
              CHANNELS 3 Zrotation Yrotation Xrotation
            }
          }
        }
      }
    }
  }
}
MOTION
Frames: 4
Frame Time: 0.03333333333333333
0.0 0.0 0.0 0.0 -0.0 0.0 -0.328938 97.818932 -4.817784 0.617065 0.096948 -1.64389 -1.728897 -0.484898 1.40435 -0.736136 -1.07212 -4.070176 0.522869 -2.352155 12.509254 3.321094 1.790683 4.49927 -1.293879 -1.015226 -3.575552 -0.046273 -1.273576 -14.958605 7.7e-05 -2.2e-05 6e-06 0.009263 -0.188701 0.088913 0.695016 -3.93285 -10.544168 -0.676401 3.557697 -10.548472 -9.727943 -3.817706 13.332316 -64.483376 -11.389419 20.407747 -0.307873 -21.892756 0.067874 0.168083 3.002641 2.683189 -5.882027 9.861376 0.702426 -10.936905 -0.360661 7.156144 -9e-06 8.774786 -3e-06 -17.077629 18.943054 5.763641 -1.844027 2.498504 -2.507268 -10.163564 4.678936 4.621107 -20.975939 1.2e-05 -1.7e-05 -21.226219 2.451677 -3.59401 2e-06 -6e-06 -2e-06 -1.362685 2.240775 -0.746312 -21.334824 0.584954 3.00831 -13.821158 8e-06 -9e-06 -23.887077 -0.249082 -0.839506 -60.958885 2.506915 -1.241686 -0.294032 1.679657 0.833263 -14.218156 0.093264 1.300582 -34.211914 -0.287545 0.96714 -20.033161 0.964538 1.212826 -3e-06 2e-06 -0.0 -3.440372 0.788205 0.501674 -15.928142 -3.167243 2.999699 -6.338801 6e-06 -6e-06 -18.123417 3.648179 -4.905689 -3e-06 -1e-06 -4e-06 20.44116 5.583205 16.822699 57.502155 16.914278 7.161244 1.231563 21.967499 0.090569 -8.167779 -0.536501 -7.883972 2.243496 -5.255044 -3.180234 14.282906 -0.826595 6.952475 9e-06 -12.690614 -5e-06 16.60174 -17.787142 2.359796 1.665662 -1.955923 -2.878293 4.727791 -4.170596 4.993922 11.020509 -4e-06 -8e-06 12.109064 -3.73573 -2.866819 -1e-06 -0.0 -1e-06 1.291987 -1.928563 -1.498082 14.80009 0.567474 3.865607 14.242553 -1.341753 -6.660666 19.631975 0.143935 -0.648284 49.375 -0.435649 -6.124032 0.353029 -1.511165 -0.031933 20.222738 3.684313 2.316631 18.787243 -4e-06 -1.4e-05 10.751622 -0.479869 1.397907 0.0 -0.0 2e-06 3.27379 0.305918 -0.580099 21.486767 11.830402 2.266151 8.162911 -2e-06 -4e-06 18.399092 -3.798986 -4.940616 4e-06 -0.0 -3e-06 -5.510298 0.446946 12.922795 0.015574 0.2454 2.538398 4.211576 -0.886049 -14.511833 1.625396 -1.807454 -1.881106 0.0 0.0 1e-06 -4.782858 1.368798 -33.935555 -0.163592 -0.006149 65.359055 0.904173 -9.733464 3.190378 -1.540089 1.048668 -4.025657 -0.0 -0.0 2e-06 
0.0 0.0 0.0 0.0 -0.0 0.0 0.064803 97.554329 -3.200754 -0.295279 0.322125 -1.453844 -1.32621 -0.547862 1.607302 -0.591405 -1.39213 -3.978394 0.869716 -2.916614 12.613858 3.715966 1.555206 4.237384 -1.384292 -1.090238 -3.600655 -0.19539 -1.261363 -14.970017 7.7e-05 -2.2e-05 6e-06 0.009627 -0.175308 0.042294 0.692183 -3.912392 -10.564176 -0.672222 3.561229 -10.560826 -9.034489 -4.300376 13.439993 -64.125618 -12.31337 19.376106 -0.350047 -22.506763 0.052543 -0.09029 3.259462 3.058193 -5.882049 9.861256 0.702847 -10.936841 -0.360544 7.156363 1.1e-05 8.774827 4e-06 -16.901789 18.682926 5.816408 -1.844028 2.498502 -2.507283 -10.163573 4.678926 4.621079 -20.975994 -3.1e-05 -1e-06 -21.226301 2.451645 -3.594028 1e-06 -9e-06 -3e-06 -1.362666 2.240778 -0.746343 -21.334877 0.584895 3.008304 -13.821197 -1.8e-05 9e-06 -23.887207 -0.249133 -0.839477 -61.017128 2.372674 -1.087188 -0.294006 1.679661 0.833236 -14.218196 0.093215 1.300562 -34.212017 -0.287593 0.967201 -20.033241 0.964538 1.212881 -3e-06 -1e-06 0.0 -3.440332 0.788187 0.501623 -15.928189 -3.167287 2.999704 -6.338819 -8e-06 6e-06 -18.123472 3.648133 -4.905694 -5e-06 -1e-06 -2e-06 20.94681 5.16552 16.81008 56.714775 16.830767 7.159424 1.178496 22.758053 0.084499 -8.198568 0.280187 -7.487845 2.243537 -5.254986 -3.179909 14.282843 -0.826603 6.952635 -1.4e-05 -12.690595 7e-06 16.643763 -17.82061 2.349566 1.665667 -1.955925 -2.878314 4.727807 -4.170587 4.993899 11.020557 9e-06 -9e-06 12.109136 -3.735695 -2.866842 1e-06 -0.0 -1e-06 1.291984 -1.92854 -1.498114 14.80014 0.567466 3.865593 14.24261 -1.341714 -6.660699 19.632133 0.143974 -0.648297 49.668537 -0.458641 -6.083543 0.353031 -1.511145 -0.03197 20.222811 3.684306 2.316613 18.787331 1.8e-05 -3e-06 10.751676 -0.47987 1.397924 -1e-06 2e-06 -2e-06 3.27381 0.305964 -0.580155 21.486814 11.830349 2.266121 8.162946 5e-06 3e-06 18.399197 -3.798949 -4.94061 4e-06 3e-06 -1e-06 -4.592713 1.120087 13.989736 -0.007124 0.171036 2.325519 4.368083 -1.743868 -15.224546 1.642363 -1.835866 -1.748832 -0.0 0.0 -1e-06 -2.115406 0.302533 -36.941616 -0.173066 0.034268 60.879826 1.414417 -8.182808 2.342933 -1.502633 1.047207 -3.866829 0.0 -0.0 -5e-06 
0.0 0.0 0.0 0.0 -0.0 0.0 0.517713 97.182121 -1.460458 -1.007822 0.688266 -1.036617 -1.134962 -0.589784 1.682247 -0.522175 -1.815147 -3.955961 1.286526 -3.40796 12.786874 4.263512 1.316779 3.842219 -1.438597 -1.279656 -3.658245 -0.543263 -1.291133 -14.836652 7.7e-05 -2.2e-05 6e-06 0.009835 -0.193664 0.024911 0.673121 -3.922748 -10.57451 -0.65219 3.532626 -10.560072 -8.086357 -5.063078 13.344146 -63.924103 -13.016477 18.684818 -0.313235 -23.361624 -0.004313 -0.508342 3.569311 3.163662 -5.882186 9.861135 0.702641 -10.936784 -0.360469 7.156225 -8e-06 8.774895 -1.2e-05 -16.780188 18.529274 5.846659 -1.844044 2.498508 -2.507283 -10.163665 4.678995 4.621087 -20.976187 6e-06 6e-06 -21.226561 2.451755 -3.594086 1e-06 -6e-06 -0.0 -1.362706 2.24087 -0.74633 -21.335026 0.584854 3.008332 -13.821318 -0.0 1e-06 -23.887526 -0.249065 -0.839532 -61.036655 2.331988 -1.045637 -0.294058 1.679782 0.833253 -14.218253 0.093125 1.300587 -34.212345 -0.287558 0.96717 -20.03339 0.964536 1.212856 1e-06 -1e-06 -1e-06 -3.440495 0.788379 0.501632 -15.928174 -3.167468 2.999742 -6.338873 -0.0 -3e-06 -18.123695 3.648205 -4.905748 -2e-06 1e-06 -2e-06 21.633091 4.710018 16.732185 55.764145 16.539789 6.960145 1.026011 23.336018 0.021564 -8.152111 0.600559 -6.848011 2.243546 -5.254878 -3.180088 14.282813 -0.826712 6.952549 -7e-06 -12.690688 -1.1e-05 16.592794 -17.778925 2.40781 1.665676 -1.955921 -2.878309 4.727821 -4.170622 4.993907 11.020586 9e-06 -5e-06 12.109166 -3.735753 -2.86684 2e-06 0.0 1e-06 1.292001 -1.928614 -1.4981 14.800183 0.567535 3.865604 14.242643 -1.341743 -6.66069 19.632168 0.143954 -0.648282 49.8578 -0.469869 -6.056409 0.353051 -1.511233 -0.031948 20.222866 3.684423 2.316642 18.787374 2.2e-05 -1.1e-05 10.751683 -0.479854 1.397922 -1e-06 1e-06 0.0 3.27388 0.305833 -0.580146 21.486853 11.830573 2.266191 8.162968 1.1e-05 -7e-06 18.399248 -3.79897 -4.940647 5e-06 -0.0 -2e-06 -3.851091 1.616968 14.91193 -0.02489 0.138102 2.196474 4.788063 -2.633876 -16.024654 1.665005 -1.817863 -1.640718 0.0 0.0 5e-06 0.605298 -1.066347 -39.096977 -0.109777 0.053158 53.092514 2.844906 -6.009274 2.149813 -1.476281 1.057848 -3.907597 0.0 -0.0 -4e-06 
0.0 0.0 0.0 0.0 -0.0 0.0 0.938428 96.649048 0.579616 -1.267725 1.170189 -0.523396 -1.283785 -0.590282 1.711445 -0.550606 -2.229497 -4.011398 1.581877 -3.875894 12.98176 5.111757 1.050359 3.401147 -1.564429 -1.525239 -3.681391 -0.940677 -1.384824 -14.752819 7.7e-05 -2.2e-05 6e-06 0.005212 -0.207807 0.031198 0.65674 -3.934923 -10.58666 -0.644889 3.515787 -10.561469 -6.956995 -5.948497 13.291868 -63.702579 -13.914644 18.626101 -0.222397 -24.125301 -0.077072 -1.035536 3.754999 3.40482 -5.882171 9.861115 0.702792 -10.936666 -0.360386 7.156353 5.1e-05 8.774883 -2e-06 -16.723825 18.45376 5.843119 -1.844041 2.498496 -2.507293 -10.163635 4.678916 4.62107 -20.976183 -0.000128 2e-05 -21.226503 2.451576 -3.593992 1e-06 -6e-06 -1e-06 -1.362656 2.240816 -0.746336 -21.335066 0.584772 3.008307 -13.821311 -8.3e-05 2e-05 -23.887505 -0.249257 -0.839406 -61.068954 2.376179 -1.076709 -0.29399 1.679714 0.833239 -14.21832 0.093104 1.30056 -34.212337 -0.287748 0.96726 -20.033403 0.964465 1.212947 5e-06 -2e-06 -1e-06 -3.440375 0.788229 0.501602 -15.928288 -3.167418 2.999712 -6.338867 -3.9e-05 1e-06 -18.123665 3.648037 -4.905697 -3e-06 -1e-06 -0.0 22.419949 4.149125 16.627874 55.007256 16.112617 6.365001 0.742077 23.478687 -0.077546 -8.175703 0.581537 -6.383045 2.243597 -5.255025 -3.180033 14.282753 -0.826567 6.952589 -4.7e-05 -12.69056 7e-06 16.540554 -17.733147 2.477839 1.665677 -1.955922 -2.878307 4.727821 -4.170559 4.993901 11.020609 3.9e-05 -0.0 12.109191 -3.735626 -2.866803 -1e-06 -0.0 -1e-06 1.291987 -1.928516 -1.498111 14.800221 0.567461 3.865592 14.242675 -1.341673 -6.660679 19.632288 0.144016 -0.648239 50.06752 -0.449408 -6.009609 0.35303 -1.511103 -0.031968 20.222916 3.684293 2.316613 18.78742 6.4e-05 1.2e-05 10.751717 -0.479849 1.397934 1e-06 -1e-06 -0.0 3.273854 0.306031 -0.58016 21.486904 11.830265 2.266104 8.162985 2.8e-05 -2e-06 18.399321 -3.798871 -4.940585 5e-06 1e-06 0.0 -3.58004 1.99712 15.819622 -0.019979 0.140843 2.218493 5.306639 -3.303071 -16.910654 1.681042 -1.806498 -1.654412 0.0 0.0 2e-06 2.737826 -2.033249 -39.812943 -0.028849 0.004113 42.044868 5.050964 -4.003694 2.582998 -1.472636 1.100676 -4.085335 -0.0 -0.0 1e-06 
